<?xml version="1.0" standalone="no"?>
<!DOCTYPE svg PUBLIC "-//W3C//DTD SVG 20010904//EN"
 "http://www.w3.org/TR/2001/REC-SVG-20010904/DTD/svg10.dtd">
<svg version="1.0" xmlns="http://www.w3.org/2000/svg"
 width="418.000000pt" height="159.000000pt" viewBox="0 0 418.000000 159.000000"
 preserveAspectRatio="xMidYMid meet">

<g fill="#000000" stroke="none">
<path d="M570 1233 c-8 -3 -18 -11 -22 -17 -12 -18 -9 -63 5 -75 9 -7 14 -40
14 -106 l1 -95 -33 0 c-31 0 -34 -3 -37 -32 -3 -31 -5 -33 -38 -30 -39 3 -46
3 -140 -1 l-65 -3 -3 -36 c-2 -20 -10 -42 -18 -48 -18 -16 -18 -64 0 -79 23
-19 69 -9 82 18 13 24 1 71 -18 71 -4 0 -8 9 -8 20 0 17 7 20 41 20 22 0 50
-5 61 -11 14 -8 23 -8 31 0 6 6 26 11 44 11 l33 0 0 -64 c0 -55 -3 -64 -20
-69 -11 -3 -34 0 -50 6 -25 9 -33 8 -46 -5 -13 -12 -14 -20 -5 -37 12 -22 36
-28 46 -11 3 6 22 10 41 10 l34 0 0 -65 c0 -75 -11 -86 -67 -66 -26 10 -38 10
-46 2 -18 -18 -61 -13 -75 10 -18 28 -72 23 -88 -9 -16 -33 -7 -58 27 -73 26
-10 32 -9 53 10 25 23 56 27 88 10 14 -8 23 -8 31 0 6 6 26 11 44 11 31 0 33
-2 33 -35 0 -33 2 -35 35 -35 33 0 35 -2 35 -35 l0 -35 -54 0 c-35 0 -58 5
-66 15 -7 8 -27 15 -45 15 -58 0 -71 -71 -17 -99 19 -10 62 3 62 19 0 14 106
13 131 -3 17 -10 22 -9 34 7 10 13 11 24 5 37 -6 10 -10 31 -10 48 l0 31 66 0
67 0 -6 -50 c-7 -60 -1 -80 24 -80 23 0 41 31 28 51 -5 7 -9 29 -9 47 l0 32
66 0 66 0 -4 -56 c-2 -46 0 -59 15 -68 24 -15 51 18 37 45 -19 35 -12 75 15
87 14 7 30 23 35 38 8 21 15 25 42 22 31 -3 33 -6 36 -45 2 -31 -3 -50 -19
-72 -26 -35 -20 -73 13 -88 57 -26 98 35 59 87 -24 33 -28 89 -9 120 10 16 10
23 -4 36 -14 14 -21 14 -51 3 -56 -20 -67 -10 -67 66 l0 65 30 0 c17 0 39 -6
50 -12 16 -11 23 -10 37 5 14 14 15 21 7 35 -12 17 -28 19 -72 8 -43 -10 -52
1 -52 70 l0 64 30 0 c17 0 39 -5 49 -12 25 -15 53 6 49 36 -3 23 -41 34 -61
18 -7 -5 -23 -9 -37 -7 -20 1 -26 8 -28 33 -3 28 -7 32 -33 32 -27 0 -29 2
-29 40 l0 40 51 0 c36 0 55 -5 64 -16 25 -36 94 -9 95 37 1 44 -60 69 -92 37
-17 -17 -30 -19 -91 -16 l-72 3 3 -62 4 -63 -67 0 -68 0 7 66 7 65 -28 -3
c-28 -3 -28 -4 -25 -65 l4 -63 -65 0 -65 0 0 95 c1 68 5 98 14 106 22 18 17
66 -8 83 -24 17 -25 17 -48 9z m35 -44 c10 -15 -1 -23 -20 -15 -9 3 -13 10
-10 16 8 13 22 13 30 -1z m513 -146 c-4 -22 -22 -20 -26 1 -2 10 3 16 13 16
10 0 15 -7 13 -17z m-140 -344 c2 -167 0 -208 -12 -218 -9 -8 -75 -11 -222 -9
l-209 3 -1 210 c0 116 1 213 3 218 3 4 102 6 221 5 l217 -3 3 -206z m-690 59
c-7 -19 -38 -22 -38 -4 0 10 9 16 21 16 12 0 19 -5 17 -12z m-2 -229 c10 -17
-13 -36 -27 -22 -12 12 -4 33 11 33 5 0 12 -5 16 -11z m137 -176 c9 -9 -13
-34 -24 -27 -14 8 -11 34 4 34 8 0 17 -3 20 -7z m695 -10 c-4 -22 -22 -20 -26
1 -2 10 3 16 13 16 10 0 15 -7 13 -17z"/>
<path d="M660 690 l0 -100 99 0 100 0 -1 100 0 100 -99 0 -99 0 0 -100z m160
-5 l0 -65 -65 0 -65 0 0 65 0 65 65 0 65 0 0 -65z"/>
<path d="M2401 1070 c-65 -16 -76 -37 -79 -162 -6 -183 16 -218 138 -218 55 0
65 3 91 29 29 29 29 30 29 155 0 70 -5 136 -11 149 -19 42 -100 64 -168 47z
m108 -35 c16 -8 31 -22 35 -30 3 -9 6 -65 6 -124 0 -104 -1 -109 -26 -135 -21
-21 -36 -26 -73 -26 -52 1 -76 15 -91 54 -14 38 -12 196 3 226 24 47 92 64
146 35z"/>
<path d="M2413 1029 c-40 -12 -53 -48 -53 -151 0 -82 15 -130 45 -142 37 -14
86 -6 110 19 23 22 25 31 25 128 0 85 -3 109 -17 125 -22 25 -67 34 -110 21z
m87 -48 c5 -11 10 -58 10 -105 0 -97 -12 -119 -64 -114 -45 4 -57 36 -54 136
3 91 10 102 65 102 22 0 36 -6 43 -19z"/>
<path d="M2775 1073 c-75 -16 -95 -55 -95 -188 0 -156 28 -195 138 -195 57 0
67 3 93 29 27 27 29 35 29 105 l0 76 -65 0 -65 0 0 -35 c0 -32 2 -35 30 -35
23 0 30 -5 30 -19 0 -44 -56 -66 -96 -37 -16 12 -19 27 -19 104 0 105 10 125
64 120 28 -2 39 -9 49 -30 10 -21 20 -28 43 -28 27 0 29 3 29 39 0 71 -75 114
-165 94z m113 -59 c12 -14 22 -30 22 -37 0 -7 -6 -3 -12 8 -18 33 -40 45 -85
45 -51 0 -83 -26 -84 -67 0 -16 -1 -57 -2 -93 -3 -81 8 -119 40 -131 29 -11
84 -12 99 -1 19 13 34 50 34 86 0 33 -2 35 -37 39 -35 3 -34 4 10 5 53 2 54
-1 37 -73 -11 -50 -41 -75 -91 -75 -53 0 -86 18 -99 53 -14 42 -12 196 3 227
26 52 122 60 165 14z"/>
<!-- All other <path> elements remain unchanged -->
</g>
</svg>
